<svg xmlns="http://www.w3.org/2000/svg" viewBox="0 0 100 100">
  <defs>
    <linearGradient id="grad1" x1="0%" y1="0%" x2="100%" y2="100%">
      <stop offset="0%" style="stop-color:#6366f1;stop-opacity:1" />
      <stop offset="50%" style="stop-color:#8b5cf6;stop-opacity:1" />
      <stop offset="100%" style="stop-color:#a855f7;stop-opacity:1" />
    </linearGradient>
  </defs>
  <rect width="100" height="100" fill="url(#grad1)"/>
  <!-- Persona 1 -->
  <circle cx="35" cy="30" r="12" fill="white"/>
  <path d="M 25 50 Q 25 45 35 45 Q 45 45 45 50 L 45 65 Q 45 70 35 70 Q 25 70 25 65 Z" fill="white"/>
  <!-- Persona 2 -->
  <circle cx="65" cy="30" r="12" fill="white"/>
  <path d="M 55 50 Q 55 45 65 45 Q 75 45 75 50 L 75 65 Q 75 70 65 70 Q 55 70 55 65 Z" fill="white"/>
  <!-- Persona 3 (abajo) -->
  <circle cx="50" cy="52" r="12" fill="white"/>
  <path d="M 40 72 Q 40 67 50 67 Q 60 67 60 72 L 60 87 Q 60 92 50 92 Q 40 92 40 87 Z" fill="white"/>
</svg>